<svg xmlns="http://www.w3.org/2000/svg" xmlns:xlink="http://www.w3.org/1999/xlink" fill="none" version="1.1" width="84" height="84" viewBox="0 0 84 84"><defs><linearGradient x1="0.13466165959835052" y1="0.13465124368667603" x2="0.8653383255004885" y2="0.8653283119201658" id="master_svg0_2_5"><stop offset="0%" stop-color="#A048ED" stop-opacity="1"/><stop offset="73.57142567634583%" stop-color="#007AFF" stop-opacity="1"/><stop offset="100%" stop-color="#007AFF" stop-opacity="1"/></linearGradient><clipPath id="master_svg1_21_43254"><rect x="0" y="0" width="84" height="84" rx="20"/></clipPath></defs><g clip-path="url(#master_svg1_21_43254)"><rect x="0" y="0" width="84" height="84" rx="20" fill="url(#master_svg0_2_5)" fill-opacity="1"/><g><path d="M37.5074805,28.3205404C37.5074805,26.6111753,36.7814145,25.11478263,35.5526925,24.1171875L44.4888645,24.1171875C45.717586499999996,25.11478263,46.4436515,26.6111753,46.4436515,28.3205404C46.4436515,34.7740885,46.4436515,42.452211500000004,46.4436515,48.4966375C46.4436515,49.6651725,47.2339405,50.458200500000004,48.3984375,50.458200500000004C49.1245045,50.458200500000004,50.1242355,50.458200500000004,50.9117355,50.458200500000004L50.9117355,28.3205404C50.9117355,26.6111753,50.1856685,25.11478263,48.9569475,24.1171875L57.8847425,24.1227888921C59.1134645,25.120384,59.8479085,26.6111753,59.8479085,28.3205404L59.8479085,50.458200500000004L61.5234375,50.458200500000004L59.8479085,57.1835675L59.8479085,60.2660255L50.9117355,62.5078125L50.9117355,59.4253545L44.4888645,59.4253545C40.4983025,59.4253545,37.5074805,56.4269595,37.5074805,52.4197655L37.5074805,28.3205404ZM24.1032248,53.8208845C24.1032248,57.8280755,27.0912561,61.1066935,31.0846081,61.1066935L40.0207785,61.1066935C36.0469715,61.1066935,33.0673225,57.8028565,33.0393965,53.8208845L33.0393965,37.5679165L24.1032248,37.5679165L24.1032248,53.8208845ZM33.0393965,33.084341L33.0393965,28.3205404C33.0393965,26.6111753,32.3133295,25.11478263,31.0846081,24.1171875L22.1484375,24.1171875C23.3771592,25.11478263,24.1032248,26.6111753,24.1032248,28.3205404L24.1032248,33.084341L33.0393965,33.084341Z" fill-rule="evenodd" fill="#FFFFFF" fill-opacity="1"/></g><g><path d="M42.000001615814206,7.546875Q49.00836361581421,7.546875,55.41121461581421,10.2550457Q61.594373615814206,12.8702979,66.36203561581421,17.63796Q71.1297046158142,22.405625999999998,73.7449626158142,28.588781Q76.45312261581421,34.991634000000005,76.45312261581421,41.999996Q76.45312261581421,49.008354,73.7449626158142,55.411209Q71.1297046158142,61.594376,66.36203561581421,66.362034Q61.59435061581421,71.129707,55.41121461581421,73.744949Q49.00835561581421,76.453125,42.000001615814206,76.453125Q34.991635615814204,76.453125,28.58878461581421,73.744949Q22.405626615814207,71.129707,17.63796161581421,66.362034Q12.870296915814208,61.594353,10.255044215814209,55.411209Q7.546873241662979,49.008366,7.546872615814209,41.999996Q7.546875119209309,34.991614999999996,10.25504611581421,28.588781Q12.87030551581421,22.405617,17.63796161581421,17.637959000000002Q22.40561461581421,12.870307,28.58878461581421,10.2550466Q34.99162061581421,7.54687421768904,42.000001615814206,7.546875ZM42.000001615814206,10.828125Q35.65701261581421,10.828125,29.86700161581421,13.2770925Q24.27326361581421,15.6430454,19.958155615814206,19.958154Q15.643043015814209,24.273264,13.277092015814208,29.867001Q10.828125015814209,35.657007,10.828122615814209,41.999996Q10.828122615814209,48.342983,13.27709011581421,54.132996Q15.643029715814208,59.726711,19.958155615814206,64.04184000000001Q24.27327861581421,68.356964,29.86700161581421,70.722904Q35.65702761581421,73.171875,42.000001615814206,73.171875Q48.34295461581421,73.171875,54.13300061581421,70.722904Q59.72669761581421,68.356976,64.04184061581421,64.04184000000001Q68.35697361581421,59.7267,70.7229136158142,54.132996Q73.17187261581421,48.342972,73.17187261581421,41.999996Q73.17187261581421,35.657028,70.7229136158142,29.867001Q68.35696161581421,24.273277,64.04184061581421,19.958154999999998Q59.72670861581421,15.6430302,54.13300061581421,13.277091Q48.34299261581421,10.828125,42.000001615814206,10.828125Z" fill-rule="evenodd" fill="#FFFFFF" fill-opacity="1"/></g></g></svg>